<mxfile host="www.draw.io" modified="2020-02-06T05:43:07.192Z" agent="Mozilla/5.0 (Macintosh; Intel Mac OS X 10_14_6) AppleWebKit/537.36 (KHTML, like Gecko) Chrome/79.0.3945.130 Safari/537.36" etag="-QYPUpkEqh_vdFg1tboT" version="12.6.5" type="github">
  <diagram id="Jfz8fJ2Vh4rUFXs1Ae1H" name="Page-1">
    <mxGraphModel dx="723" dy="456" grid="1" gridSize="10" guides="1" tooltips="1" connect="1" arrows="1" fold="1" page="1" pageScale="1" pageWidth="1654" pageHeight="1169" math="0" shadow="0">
      <root>
        <mxCell id="0"/>
        <mxCell id="1" parent="0"/>
        <mxCell id="Y6lM4kN4b_S3sSFsryqp-1" value="E+&lt;br style=&quot;font-size: 17px;&quot;&gt;Offshore Team" style="rounded=0;whiteSpace=wrap;html=1;fontSize=17;" vertex="1" parent="1">
          <mxGeometry x="710" y="33" width="160" height="70" as="geometry"/>
        </mxCell>
        <mxCell id="Y6lM4kN4b_S3sSFsryqp-2" value="Data" style="rounded=0;whiteSpace=wrap;html=1;fontSize=17;" vertex="1" parent="1">
          <mxGeometry x="170" y="201" width="120" height="60" as="geometry"/>
        </mxCell>
        <mxCell id="Y6lM4kN4b_S3sSFsryqp-3" value="" style="endArrow=none;html=1;exitX=0.5;exitY=0;exitDx=0;exitDy=0;entryX=0.5;entryY=1;entryDx=0;entryDy=0;edgeStyle=orthogonalEdgeStyle;" edge="1" parent="1" source="Y6lM4kN4b_S3sSFsryqp-2" target="Y6lM4kN4b_S3sSFsryqp-1">
          <mxGeometry width="50" height="50" relative="1" as="geometry">
            <mxPoint x="170" y="393" as="sourcePoint"/>
            <mxPoint x="230" y="153" as="targetPoint"/>
          </mxGeometry>
        </mxCell>
        <mxCell id="Y6lM4kN4b_S3sSFsryqp-4" value="Fin Crime" style="rounded=0;whiteSpace=wrap;html=1;fontSize=17;" vertex="1" parent="1">
          <mxGeometry x="380" y="201" width="120" height="60" as="geometry"/>
        </mxCell>
        <mxCell id="Y6lM4kN4b_S3sSFsryqp-5" value="" style="endArrow=none;html=1;entryX=0.5;entryY=1;entryDx=0;entryDy=0;exitX=0.5;exitY=0;exitDx=0;exitDy=0;edgeStyle=orthogonalEdgeStyle;" edge="1" parent="1" source="Y6lM4kN4b_S3sSFsryqp-4" target="Y6lM4kN4b_S3sSFsryqp-1">
          <mxGeometry width="50" height="50" relative="1" as="geometry">
            <mxPoint x="450" y="263" as="sourcePoint"/>
            <mxPoint x="220" y="353" as="targetPoint"/>
          </mxGeometry>
        </mxCell>
        <mxCell id="Y6lM4kN4b_S3sSFsryqp-6" value="Journey Team" style="rounded=0;whiteSpace=wrap;html=1;fontSize=17;" vertex="1" parent="1">
          <mxGeometry x="730" y="201" width="120" height="60" as="geometry"/>
        </mxCell>
        <mxCell id="Y6lM4kN4b_S3sSFsryqp-7" value="" style="endArrow=none;html=1;fontSize=17;entryX=0.5;entryY=1;entryDx=0;entryDy=0;exitX=0.5;exitY=0;exitDx=0;exitDy=0;edgeStyle=orthogonalEdgeStyle;" edge="1" parent="1" source="Y6lM4kN4b_S3sSFsryqp-6" target="Y6lM4kN4b_S3sSFsryqp-1">
          <mxGeometry width="50" height="50" relative="1" as="geometry">
            <mxPoint x="170" y="403" as="sourcePoint"/>
            <mxPoint x="220" y="353" as="targetPoint"/>
          </mxGeometry>
        </mxCell>
        <mxCell id="Y6lM4kN4b_S3sSFsryqp-8" value="Migration Factory" style="rounded=0;whiteSpace=wrap;html=1;fontSize=17;" vertex="1" parent="1">
          <mxGeometry x="1050" y="201" width="120" height="60" as="geometry"/>
        </mxCell>
        <mxCell id="Y6lM4kN4b_S3sSFsryqp-9" value="Platform" style="rounded=0;whiteSpace=wrap;html=1;fontSize=17;" vertex="1" parent="1">
          <mxGeometry x="1220" y="201" width="120" height="60" as="geometry"/>
        </mxCell>
        <mxCell id="Y6lM4kN4b_S3sSFsryqp-10" value="Programme" style="rounded=0;whiteSpace=wrap;html=1;fontSize=17;" vertex="1" parent="1">
          <mxGeometry x="1410" y="201" width="120" height="60" as="geometry"/>
        </mxCell>
        <mxCell id="Y6lM4kN4b_S3sSFsryqp-11" value="" style="endArrow=none;html=1;fontSize=17;entryX=0.5;entryY=1;entryDx=0;entryDy=0;exitX=0.5;exitY=0;exitDx=0;exitDy=0;edgeStyle=orthogonalEdgeStyle;" edge="1" parent="1" source="Y6lM4kN4b_S3sSFsryqp-8" target="Y6lM4kN4b_S3sSFsryqp-1">
          <mxGeometry width="50" height="50" relative="1" as="geometry">
            <mxPoint x="170" y="403" as="sourcePoint"/>
            <mxPoint x="220" y="353" as="targetPoint"/>
          </mxGeometry>
        </mxCell>
        <mxCell id="Y6lM4kN4b_S3sSFsryqp-12" value="" style="endArrow=none;html=1;fontSize=17;exitX=0.5;exitY=0;exitDx=0;exitDy=0;entryX=0.5;entryY=1;entryDx=0;entryDy=0;edgeStyle=orthogonalEdgeStyle;" edge="1" parent="1" source="Y6lM4kN4b_S3sSFsryqp-9" target="Y6lM4kN4b_S3sSFsryqp-1">
          <mxGeometry width="50" height="50" relative="1" as="geometry">
            <mxPoint x="170" y="403" as="sourcePoint"/>
            <mxPoint x="710" y="123" as="targetPoint"/>
          </mxGeometry>
        </mxCell>
        <mxCell id="Y6lM4kN4b_S3sSFsryqp-13" value="" style="endArrow=none;html=1;fontSize=17;entryX=0.5;entryY=1;entryDx=0;entryDy=0;exitX=0.25;exitY=0;exitDx=0;exitDy=0;edgeStyle=orthogonalEdgeStyle;" edge="1" parent="1" source="Y6lM4kN4b_S3sSFsryqp-10" target="Y6lM4kN4b_S3sSFsryqp-1">
          <mxGeometry width="50" height="50" relative="1" as="geometry">
            <mxPoint x="170" y="403" as="sourcePoint"/>
            <mxPoint x="220" y="353" as="targetPoint"/>
          </mxGeometry>
        </mxCell>
        <mxCell id="Y6lM4kN4b_S3sSFsryqp-14" value="FT2 - 6 FTE" style="rounded=0;whiteSpace=wrap;html=1;fontSize=17;" vertex="1" parent="1">
          <mxGeometry x="170" y="425" width="120" height="60" as="geometry"/>
        </mxCell>
        <mxCell id="Y6lM4kN4b_S3sSFsryqp-15" value="Customer" style="rounded=0;whiteSpace=wrap;html=1;fontSize=17;" vertex="1" parent="1">
          <mxGeometry x="580" y="311" width="120" height="60" as="geometry"/>
        </mxCell>
        <mxCell id="Y6lM4kN4b_S3sSFsryqp-16" value="Customer - SCA" style="rounded=0;whiteSpace=wrap;html=1;fontSize=17;" vertex="1" parent="1">
          <mxGeometry x="730" y="311" width="120" height="60" as="geometry"/>
        </mxCell>
        <mxCell id="Y6lM4kN4b_S3sSFsryqp-17" value="SCW" style="rounded=0;whiteSpace=wrap;html=1;fontSize=17;" vertex="1" parent="1">
          <mxGeometry x="880" y="311" width="120" height="60" as="geometry"/>
        </mxCell>
        <mxCell id="Y6lM4kN4b_S3sSFsryqp-18" value="" style="endArrow=none;html=1;fontSize=17;entryX=0.5;entryY=1;entryDx=0;entryDy=0;exitX=0.5;exitY=0;exitDx=0;exitDy=0;edgeStyle=orthogonalEdgeStyle;" edge="1" parent="1" source="Y6lM4kN4b_S3sSFsryqp-15" target="Y6lM4kN4b_S3sSFsryqp-6">
          <mxGeometry width="50" height="50" relative="1" as="geometry">
            <mxPoint x="310" y="441" as="sourcePoint"/>
            <mxPoint x="360" y="391" as="targetPoint"/>
          </mxGeometry>
        </mxCell>
        <mxCell id="Y6lM4kN4b_S3sSFsryqp-19" value="" style="endArrow=none;html=1;fontSize=17;entryX=0.5;entryY=1;entryDx=0;entryDy=0;edgeStyle=orthogonalEdgeStyle;exitX=0.5;exitY=0;exitDx=0;exitDy=0;" edge="1" parent="1" source="Y6lM4kN4b_S3sSFsryqp-16" target="Y6lM4kN4b_S3sSFsryqp-6">
          <mxGeometry width="50" height="50" relative="1" as="geometry">
            <mxPoint x="780" y="311" as="sourcePoint"/>
            <mxPoint x="740" y="511" as="targetPoint"/>
          </mxGeometry>
        </mxCell>
        <mxCell id="Y6lM4kN4b_S3sSFsryqp-20" value="" style="endArrow=none;html=1;fontSize=17;entryX=0.5;entryY=1;entryDx=0;entryDy=0;exitX=0.5;exitY=0;exitDx=0;exitDy=0;edgeStyle=orthogonalEdgeStyle;" edge="1" parent="1" source="Y6lM4kN4b_S3sSFsryqp-17" target="Y6lM4kN4b_S3sSFsryqp-6">
          <mxGeometry width="50" height="50" relative="1" as="geometry">
            <mxPoint x="750" y="631" as="sourcePoint"/>
            <mxPoint x="800" y="581" as="targetPoint"/>
          </mxGeometry>
        </mxCell>
        <mxCell id="Y6lM4kN4b_S3sSFsryqp-21" value="" style="endArrow=none;html=1;fontSize=17;entryX=0.5;entryY=1;entryDx=0;entryDy=0;" edge="1" parent="1" source="Y6lM4kN4b_S3sSFsryqp-14" target="Y6lM4kN4b_S3sSFsryqp-2">
          <mxGeometry width="50" height="50" relative="1" as="geometry">
            <mxPoint x="170" y="561" as="sourcePoint"/>
            <mxPoint x="220" y="511" as="targetPoint"/>
          </mxGeometry>
        </mxCell>
        <mxCell id="Y6lM4kN4b_S3sSFsryqp-22" value="FT2 - 6 FTE" style="rounded=0;whiteSpace=wrap;html=1;fontSize=17;" vertex="1" parent="1">
          <mxGeometry x="380" y="425" width="120" height="60" as="geometry"/>
        </mxCell>
        <mxCell id="Y6lM4kN4b_S3sSFsryqp-23" value="" style="endArrow=none;html=1;fontSize=17;entryX=0.5;entryY=1;entryDx=0;entryDy=0;" edge="1" parent="1" source="Y6lM4kN4b_S3sSFsryqp-22" target="Y6lM4kN4b_S3sSFsryqp-4">
          <mxGeometry width="50" height="50" relative="1" as="geometry">
            <mxPoint x="240" y="435" as="sourcePoint"/>
            <mxPoint x="240" y="271" as="targetPoint"/>
          </mxGeometry>
        </mxCell>
        <mxCell id="Y6lM4kN4b_S3sSFsryqp-24" value="FT2 - 6 FTE" style="rounded=0;whiteSpace=wrap;html=1;fontSize=17;" vertex="1" parent="1">
          <mxGeometry x="580" y="425" width="120" height="60" as="geometry"/>
        </mxCell>
        <mxCell id="Y6lM4kN4b_S3sSFsryqp-25" value="FT2 - 6 FTE" style="rounded=0;whiteSpace=wrap;html=1;fontSize=17;" vertex="1" parent="1">
          <mxGeometry x="730" y="425" width="120" height="60" as="geometry"/>
        </mxCell>
        <mxCell id="Y6lM4kN4b_S3sSFsryqp-26" value="FT2 - 6 FTE" style="rounded=0;whiteSpace=wrap;html=1;fontSize=17;" vertex="1" parent="1">
          <mxGeometry x="880" y="425" width="120" height="60" as="geometry"/>
        </mxCell>
        <mxCell id="Y6lM4kN4b_S3sSFsryqp-27" value="" style="rounded=0;whiteSpace=wrap;html=1;fontSize=17;" vertex="1" parent="1">
          <mxGeometry x="183" y="566" width="120" height="60" as="geometry"/>
        </mxCell>
        <mxCell id="Y6lM4kN4b_S3sSFsryqp-28" value="" style="rounded=0;whiteSpace=wrap;html=1;fontSize=17;" vertex="1" parent="1">
          <mxGeometry x="183" y="639" width="120" height="60" as="geometry"/>
        </mxCell>
        <mxCell id="Y6lM4kN4b_S3sSFsryqp-29" value="" style="rounded=0;whiteSpace=wrap;html=1;fontSize=17;" vertex="1" parent="1">
          <mxGeometry x="183" y="712" width="120" height="60" as="geometry"/>
        </mxCell>
        <mxCell id="Y6lM4kN4b_S3sSFsryqp-30" value="" style="rounded=0;whiteSpace=wrap;html=1;fontSize=17;" vertex="1" parent="1">
          <mxGeometry x="183" y="790" width="120" height="60" as="geometry"/>
        </mxCell>
        <mxCell id="Y6lM4kN4b_S3sSFsryqp-31" value="" style="rounded=0;whiteSpace=wrap;html=1;fontSize=17;" vertex="1" parent="1">
          <mxGeometry x="183" y="869" width="120" height="60" as="geometry"/>
        </mxCell>
        <mxCell id="Y6lM4kN4b_S3sSFsryqp-32" value="" style="rounded=0;whiteSpace=wrap;html=1;fontSize=17;" vertex="1" parent="1">
          <mxGeometry x="183" y="939" width="120" height="60" as="geometry"/>
        </mxCell>
        <mxCell id="Y6lM4kN4b_S3sSFsryqp-33" value="" style="rounded=0;whiteSpace=wrap;html=1;fontSize=17;" vertex="1" parent="1">
          <mxGeometry x="183" y="1010" width="120" height="60" as="geometry"/>
        </mxCell>
        <mxCell id="Y6lM4kN4b_S3sSFsryqp-34" value="" style="rounded=0;whiteSpace=wrap;html=1;fontSize=17;" vertex="1" parent="1">
          <mxGeometry x="183" y="1080" width="120" height="60" as="geometry"/>
        </mxCell>
        <mxCell id="Y6lM4kN4b_S3sSFsryqp-35" value="" style="endArrow=none;html=1;fontSize=17;entryX=0;entryY=0.5;entryDx=0;entryDy=0;exitX=0;exitY=0.75;exitDx=0;exitDy=0;edgeStyle=orthogonalEdgeStyle;" edge="1" parent="1" source="Y6lM4kN4b_S3sSFsryqp-27" target="Y6lM4kN4b_S3sSFsryqp-14">
          <mxGeometry width="50" height="50" relative="1" as="geometry">
            <mxPoint x="170" y="1210" as="sourcePoint"/>
            <mxPoint x="220" y="1160" as="targetPoint"/>
          </mxGeometry>
        </mxCell>
        <mxCell id="Y6lM4kN4b_S3sSFsryqp-36" value="" style="endArrow=none;html=1;fontSize=17;exitX=0;exitY=0.5;exitDx=0;exitDy=0;edgeStyle=orthogonalEdgeStyle;entryX=0;entryY=0.5;entryDx=0;entryDy=0;" edge="1" parent="1" source="Y6lM4kN4b_S3sSFsryqp-28" target="Y6lM4kN4b_S3sSFsryqp-14">
          <mxGeometry width="50" height="50" relative="1" as="geometry">
            <mxPoint x="70" y="780" as="sourcePoint"/>
            <mxPoint x="170" y="450" as="targetPoint"/>
          </mxGeometry>
        </mxCell>
        <mxCell id="Y6lM4kN4b_S3sSFsryqp-37" value="" style="endArrow=none;html=1;fontSize=17;entryX=0;entryY=0.5;entryDx=0;entryDy=0;exitX=0;exitY=0.5;exitDx=0;exitDy=0;edgeStyle=orthogonalEdgeStyle;" edge="1" parent="1" source="Y6lM4kN4b_S3sSFsryqp-14" target="Y6lM4kN4b_S3sSFsryqp-31">
          <mxGeometry width="50" height="50" relative="1" as="geometry">
            <mxPoint x="160" y="1210" as="sourcePoint"/>
            <mxPoint x="210" y="1160" as="targetPoint"/>
          </mxGeometry>
        </mxCell>
        <mxCell id="Y6lM4kN4b_S3sSFsryqp-38" value="" style="endArrow=none;html=1;fontSize=17;entryX=0;entryY=0.5;entryDx=0;entryDy=0;exitX=0;exitY=0.5;exitDx=0;exitDy=0;edgeStyle=orthogonalEdgeStyle;" edge="1" parent="1" source="Y6lM4kN4b_S3sSFsryqp-14" target="Y6lM4kN4b_S3sSFsryqp-29">
          <mxGeometry width="50" height="50" relative="1" as="geometry">
            <mxPoint x="90" y="450" as="sourcePoint"/>
            <mxPoint x="210" y="1230" as="targetPoint"/>
          </mxGeometry>
        </mxCell>
        <mxCell id="Y6lM4kN4b_S3sSFsryqp-39" value="" style="endArrow=none;html=1;fontSize=17;entryX=0;entryY=0.5;entryDx=0;entryDy=0;exitX=0;exitY=0.5;exitDx=0;exitDy=0;edgeStyle=orthogonalEdgeStyle;" edge="1" parent="1" source="Y6lM4kN4b_S3sSFsryqp-14" target="Y6lM4kN4b_S3sSFsryqp-30">
          <mxGeometry width="50" height="50" relative="1" as="geometry">
            <mxPoint x="390" y="940" as="sourcePoint"/>
            <mxPoint x="440" y="890" as="targetPoint"/>
          </mxGeometry>
        </mxCell>
        <mxCell id="Y6lM4kN4b_S3sSFsryqp-40" value="" style="endArrow=none;html=1;fontSize=17;entryX=0;entryY=0.5;entryDx=0;entryDy=0;exitX=0;exitY=0.5;exitDx=0;exitDy=0;edgeStyle=orthogonalEdgeStyle;" edge="1" parent="1" source="Y6lM4kN4b_S3sSFsryqp-14" target="Y6lM4kN4b_S3sSFsryqp-32">
          <mxGeometry width="50" height="50" relative="1" as="geometry">
            <mxPoint x="480" y="1010" as="sourcePoint"/>
            <mxPoint x="530" y="960" as="targetPoint"/>
          </mxGeometry>
        </mxCell>
        <mxCell id="Y6lM4kN4b_S3sSFsryqp-41" value="" style="endArrow=none;html=1;fontSize=17;entryX=0;entryY=0.5;entryDx=0;entryDy=0;exitX=0;exitY=0.5;exitDx=0;exitDy=0;edgeStyle=orthogonalEdgeStyle;" edge="1" parent="1" source="Y6lM4kN4b_S3sSFsryqp-14" target="Y6lM4kN4b_S3sSFsryqp-33">
          <mxGeometry width="50" height="50" relative="1" as="geometry">
            <mxPoint x="480" y="960" as="sourcePoint"/>
            <mxPoint x="530" y="910" as="targetPoint"/>
          </mxGeometry>
        </mxCell>
        <mxCell id="Y6lM4kN4b_S3sSFsryqp-42" value="" style="endArrow=none;html=1;fontSize=17;entryX=0;entryY=0.5;entryDx=0;entryDy=0;exitX=0;exitY=0.5;exitDx=0;exitDy=0;edgeStyle=orthogonalEdgeStyle;" edge="1" parent="1" source="Y6lM4kN4b_S3sSFsryqp-14" target="Y6lM4kN4b_S3sSFsryqp-34">
          <mxGeometry width="50" height="50" relative="1" as="geometry">
            <mxPoint x="160" y="1210" as="sourcePoint"/>
            <mxPoint x="210" y="1160" as="targetPoint"/>
          </mxGeometry>
        </mxCell>
        <mxCell id="Y6lM4kN4b_S3sSFsryqp-43" value="" style="rounded=0;whiteSpace=wrap;html=1;fontSize=17;" vertex="1" parent="1">
          <mxGeometry x="373" y="561" width="120" height="60" as="geometry"/>
        </mxCell>
        <mxCell id="Y6lM4kN4b_S3sSFsryqp-44" value="" style="rounded=0;whiteSpace=wrap;html=1;fontSize=17;" vertex="1" parent="1">
          <mxGeometry x="373" y="634" width="120" height="60" as="geometry"/>
        </mxCell>
        <mxCell id="Y6lM4kN4b_S3sSFsryqp-45" value="" style="rounded=0;whiteSpace=wrap;html=1;fontSize=17;" vertex="1" parent="1">
          <mxGeometry x="373" y="707" width="120" height="60" as="geometry"/>
        </mxCell>
        <mxCell id="Y6lM4kN4b_S3sSFsryqp-46" value="" style="rounded=0;whiteSpace=wrap;html=1;fontSize=17;" vertex="1" parent="1">
          <mxGeometry x="373" y="785" width="120" height="60" as="geometry"/>
        </mxCell>
        <mxCell id="Y6lM4kN4b_S3sSFsryqp-47" value="" style="rounded=0;whiteSpace=wrap;html=1;fontSize=17;" vertex="1" parent="1">
          <mxGeometry x="373" y="864" width="120" height="60" as="geometry"/>
        </mxCell>
        <mxCell id="Y6lM4kN4b_S3sSFsryqp-48" value="" style="rounded=0;whiteSpace=wrap;html=1;fontSize=17;" vertex="1" parent="1">
          <mxGeometry x="373" y="934" width="120" height="60" as="geometry"/>
        </mxCell>
        <mxCell id="Y6lM4kN4b_S3sSFsryqp-49" value="" style="rounded=0;whiteSpace=wrap;html=1;fontSize=17;" vertex="1" parent="1">
          <mxGeometry x="373" y="1005" width="120" height="60" as="geometry"/>
        </mxCell>
        <mxCell id="Y6lM4kN4b_S3sSFsryqp-50" value="" style="rounded=0;whiteSpace=wrap;html=1;fontSize=17;" vertex="1" parent="1">
          <mxGeometry x="373" y="1075" width="120" height="60" as="geometry"/>
        </mxCell>
        <mxCell id="Y6lM4kN4b_S3sSFsryqp-51" value="" style="endArrow=none;html=1;fontSize=17;exitX=0;exitY=0.75;exitDx=0;exitDy=0;edgeStyle=orthogonalEdgeStyle;entryX=0;entryY=0.5;entryDx=0;entryDy=0;" edge="1" parent="1" source="Y6lM4kN4b_S3sSFsryqp-43" target="Y6lM4kN4b_S3sSFsryqp-22">
          <mxGeometry width="50" height="50" relative="1" as="geometry">
            <mxPoint x="360" y="1205" as="sourcePoint"/>
            <mxPoint x="380" y="460" as="targetPoint"/>
            <Array as="points">
              <mxPoint x="363" y="606"/>
              <mxPoint x="363" y="455"/>
            </Array>
          </mxGeometry>
        </mxCell>
        <mxCell id="Y6lM4kN4b_S3sSFsryqp-52" value="" style="endArrow=none;html=1;fontSize=17;exitX=0;exitY=0.5;exitDx=0;exitDy=0;edgeStyle=orthogonalEdgeStyle;entryX=0;entryY=0.5;entryDx=0;entryDy=0;" edge="1" parent="1" source="Y6lM4kN4b_S3sSFsryqp-44" target="Y6lM4kN4b_S3sSFsryqp-22">
          <mxGeometry width="50" height="50" relative="1" as="geometry">
            <mxPoint x="260" y="775" as="sourcePoint"/>
            <mxPoint x="360" y="450" as="targetPoint"/>
          </mxGeometry>
        </mxCell>
        <mxCell id="Y6lM4kN4b_S3sSFsryqp-53" value="" style="endArrow=none;html=1;fontSize=17;entryX=0;entryY=0.5;entryDx=0;entryDy=0;exitX=0;exitY=0.5;exitDx=0;exitDy=0;edgeStyle=orthogonalEdgeStyle;" edge="1" parent="1" source="Y6lM4kN4b_S3sSFsryqp-22" target="Y6lM4kN4b_S3sSFsryqp-47">
          <mxGeometry width="50" height="50" relative="1" as="geometry">
            <mxPoint x="360" y="450" as="sourcePoint"/>
            <mxPoint x="400" y="1155" as="targetPoint"/>
          </mxGeometry>
        </mxCell>
        <mxCell id="Y6lM4kN4b_S3sSFsryqp-54" value="" style="endArrow=none;html=1;fontSize=17;entryX=0;entryY=0.5;entryDx=0;entryDy=0;exitX=0;exitY=0.5;exitDx=0;exitDy=0;edgeStyle=orthogonalEdgeStyle;" edge="1" parent="1" source="Y6lM4kN4b_S3sSFsryqp-22" target="Y6lM4kN4b_S3sSFsryqp-46">
          <mxGeometry width="50" height="50" relative="1" as="geometry">
            <mxPoint x="360" y="450" as="sourcePoint"/>
            <mxPoint x="630" y="885" as="targetPoint"/>
          </mxGeometry>
        </mxCell>
        <mxCell id="Y6lM4kN4b_S3sSFsryqp-55" value="" style="endArrow=none;html=1;fontSize=17;entryX=0;entryY=0.5;entryDx=0;entryDy=0;exitX=0;exitY=0.5;exitDx=0;exitDy=0;edgeStyle=orthogonalEdgeStyle;" edge="1" parent="1" source="Y6lM4kN4b_S3sSFsryqp-22" target="Y6lM4kN4b_S3sSFsryqp-48">
          <mxGeometry width="50" height="50" relative="1" as="geometry">
            <mxPoint x="360" y="450" as="sourcePoint"/>
            <mxPoint x="720" y="955" as="targetPoint"/>
          </mxGeometry>
        </mxCell>
        <mxCell id="Y6lM4kN4b_S3sSFsryqp-56" value="" style="endArrow=none;html=1;fontSize=17;entryX=0;entryY=0.5;entryDx=0;entryDy=0;exitX=0;exitY=0.5;exitDx=0;exitDy=0;edgeStyle=orthogonalEdgeStyle;" edge="1" parent="1" source="Y6lM4kN4b_S3sSFsryqp-22" target="Y6lM4kN4b_S3sSFsryqp-49">
          <mxGeometry width="50" height="50" relative="1" as="geometry">
            <mxPoint x="360" y="450" as="sourcePoint"/>
            <mxPoint x="720" y="905" as="targetPoint"/>
          </mxGeometry>
        </mxCell>
        <mxCell id="Y6lM4kN4b_S3sSFsryqp-57" value="" style="endArrow=none;html=1;fontSize=17;entryX=0;entryY=0.5;entryDx=0;entryDy=0;edgeStyle=orthogonalEdgeStyle;exitX=0;exitY=0.5;exitDx=0;exitDy=0;" edge="1" parent="1" source="Y6lM4kN4b_S3sSFsryqp-22" target="Y6lM4kN4b_S3sSFsryqp-50">
          <mxGeometry width="50" height="50" relative="1" as="geometry">
            <mxPoint x="379" y="450" as="sourcePoint"/>
            <mxPoint x="400" y="1155" as="targetPoint"/>
          </mxGeometry>
        </mxCell>
        <mxCell id="Y6lM4kN4b_S3sSFsryqp-58" value="" style="endArrow=none;html=1;fontSize=17;entryX=0;entryY=0.5;entryDx=0;entryDy=0;exitX=0;exitY=0.5;exitDx=0;exitDy=0;edgeStyle=orthogonalEdgeStyle;" edge="1" parent="1" source="Y6lM4kN4b_S3sSFsryqp-22" target="Y6lM4kN4b_S3sSFsryqp-45">
          <mxGeometry width="50" height="50" relative="1" as="geometry">
            <mxPoint x="160" y="1210" as="sourcePoint"/>
            <mxPoint x="210" y="1160" as="targetPoint"/>
          </mxGeometry>
        </mxCell>
        <mxCell id="Y6lM4kN4b_S3sSFsryqp-59" value="" style="rounded=0;whiteSpace=wrap;html=1;fontSize=17;" vertex="1" parent="1">
          <mxGeometry x="570" y="561" width="120" height="60" as="geometry"/>
        </mxCell>
        <mxCell id="Y6lM4kN4b_S3sSFsryqp-60" value="" style="rounded=0;whiteSpace=wrap;html=1;fontSize=17;" vertex="1" parent="1">
          <mxGeometry x="570" y="634" width="120" height="60" as="geometry"/>
        </mxCell>
        <mxCell id="Y6lM4kN4b_S3sSFsryqp-61" value="" style="rounded=0;whiteSpace=wrap;html=1;fontSize=17;" vertex="1" parent="1">
          <mxGeometry x="570" y="707" width="120" height="60" as="geometry"/>
        </mxCell>
        <mxCell id="Y6lM4kN4b_S3sSFsryqp-62" value="" style="rounded=0;whiteSpace=wrap;html=1;fontSize=17;" vertex="1" parent="1">
          <mxGeometry x="570" y="785" width="120" height="60" as="geometry"/>
        </mxCell>
        <mxCell id="Y6lM4kN4b_S3sSFsryqp-63" value="" style="rounded=0;whiteSpace=wrap;html=1;fontSize=17;" vertex="1" parent="1">
          <mxGeometry x="570" y="864" width="120" height="60" as="geometry"/>
        </mxCell>
        <mxCell id="Y6lM4kN4b_S3sSFsryqp-64" value="" style="rounded=0;whiteSpace=wrap;html=1;fontSize=17;" vertex="1" parent="1">
          <mxGeometry x="570" y="934" width="120" height="60" as="geometry"/>
        </mxCell>
        <mxCell id="Y6lM4kN4b_S3sSFsryqp-65" value="" style="rounded=0;whiteSpace=wrap;html=1;fontSize=17;" vertex="1" parent="1">
          <mxGeometry x="570" y="1005" width="120" height="60" as="geometry"/>
        </mxCell>
        <mxCell id="Y6lM4kN4b_S3sSFsryqp-66" value="" style="rounded=0;whiteSpace=wrap;html=1;fontSize=17;" vertex="1" parent="1">
          <mxGeometry x="570" y="1075" width="120" height="60" as="geometry"/>
        </mxCell>
        <mxCell id="Y6lM4kN4b_S3sSFsryqp-67" value="" style="endArrow=none;html=1;fontSize=17;exitX=0;exitY=0.75;exitDx=0;exitDy=0;edgeStyle=orthogonalEdgeStyle;entryX=0;entryY=0.5;entryDx=0;entryDy=0;" edge="1" parent="1" source="Y6lM4kN4b_S3sSFsryqp-59" target="Y6lM4kN4b_S3sSFsryqp-24">
          <mxGeometry width="50" height="50" relative="1" as="geometry">
            <mxPoint x="557" y="1205" as="sourcePoint"/>
            <mxPoint x="577" y="455" as="targetPoint"/>
            <Array as="points">
              <mxPoint x="560" y="606"/>
              <mxPoint x="560" y="455"/>
            </Array>
          </mxGeometry>
        </mxCell>
        <mxCell id="Y6lM4kN4b_S3sSFsryqp-68" value="" style="endArrow=none;html=1;fontSize=17;exitX=0;exitY=0.5;exitDx=0;exitDy=0;edgeStyle=orthogonalEdgeStyle;entryX=0;entryY=0.5;entryDx=0;entryDy=0;" edge="1" parent="1" source="Y6lM4kN4b_S3sSFsryqp-60" target="Y6lM4kN4b_S3sSFsryqp-24">
          <mxGeometry width="50" height="50" relative="1" as="geometry">
            <mxPoint x="457" y="775" as="sourcePoint"/>
            <mxPoint x="577" y="455" as="targetPoint"/>
          </mxGeometry>
        </mxCell>
        <mxCell id="Y6lM4kN4b_S3sSFsryqp-69" value="" style="endArrow=none;html=1;fontSize=17;entryX=0;entryY=0.5;entryDx=0;entryDy=0;exitX=0;exitY=0.5;exitDx=0;exitDy=0;edgeStyle=orthogonalEdgeStyle;" edge="1" parent="1" source="Y6lM4kN4b_S3sSFsryqp-24" target="Y6lM4kN4b_S3sSFsryqp-63">
          <mxGeometry width="50" height="50" relative="1" as="geometry">
            <mxPoint x="577" y="455" as="sourcePoint"/>
            <mxPoint x="597" y="1155" as="targetPoint"/>
          </mxGeometry>
        </mxCell>
        <mxCell id="Y6lM4kN4b_S3sSFsryqp-70" value="" style="endArrow=none;html=1;fontSize=17;entryX=0;entryY=0.5;entryDx=0;entryDy=0;exitX=0;exitY=0.5;exitDx=0;exitDy=0;edgeStyle=orthogonalEdgeStyle;" edge="1" parent="1" source="Y6lM4kN4b_S3sSFsryqp-24" target="Y6lM4kN4b_S3sSFsryqp-62">
          <mxGeometry width="50" height="50" relative="1" as="geometry">
            <mxPoint x="577" y="455" as="sourcePoint"/>
            <mxPoint x="827" y="885" as="targetPoint"/>
          </mxGeometry>
        </mxCell>
        <mxCell id="Y6lM4kN4b_S3sSFsryqp-71" value="" style="endArrow=none;html=1;fontSize=17;entryX=0;entryY=0.5;entryDx=0;entryDy=0;exitX=0;exitY=0.5;exitDx=0;exitDy=0;edgeStyle=orthogonalEdgeStyle;" edge="1" parent="1" source="Y6lM4kN4b_S3sSFsryqp-24" target="Y6lM4kN4b_S3sSFsryqp-64">
          <mxGeometry width="50" height="50" relative="1" as="geometry">
            <mxPoint x="577" y="455" as="sourcePoint"/>
            <mxPoint x="917" y="955" as="targetPoint"/>
          </mxGeometry>
        </mxCell>
        <mxCell id="Y6lM4kN4b_S3sSFsryqp-72" value="" style="endArrow=none;html=1;fontSize=17;entryX=0;entryY=0.5;entryDx=0;entryDy=0;exitX=0;exitY=0.5;exitDx=0;exitDy=0;edgeStyle=orthogonalEdgeStyle;" edge="1" parent="1" source="Y6lM4kN4b_S3sSFsryqp-24" target="Y6lM4kN4b_S3sSFsryqp-65">
          <mxGeometry width="50" height="50" relative="1" as="geometry">
            <mxPoint x="577" y="455" as="sourcePoint"/>
            <mxPoint x="917" y="905" as="targetPoint"/>
          </mxGeometry>
        </mxCell>
        <mxCell id="Y6lM4kN4b_S3sSFsryqp-73" value="" style="endArrow=none;html=1;fontSize=17;entryX=0;entryY=0.5;entryDx=0;entryDy=0;edgeStyle=orthogonalEdgeStyle;exitX=0;exitY=0.5;exitDx=0;exitDy=0;" edge="1" parent="1" source="Y6lM4kN4b_S3sSFsryqp-24" target="Y6lM4kN4b_S3sSFsryqp-66">
          <mxGeometry width="50" height="50" relative="1" as="geometry">
            <mxPoint x="577" y="455" as="sourcePoint"/>
            <mxPoint x="597" y="1155" as="targetPoint"/>
          </mxGeometry>
        </mxCell>
        <mxCell id="Y6lM4kN4b_S3sSFsryqp-74" value="" style="endArrow=none;html=1;fontSize=17;entryX=0;entryY=0.5;entryDx=0;entryDy=0;exitX=0;exitY=0.5;exitDx=0;exitDy=0;edgeStyle=orthogonalEdgeStyle;" edge="1" parent="1" source="Y6lM4kN4b_S3sSFsryqp-24" target="Y6lM4kN4b_S3sSFsryqp-61">
          <mxGeometry width="50" height="50" relative="1" as="geometry">
            <mxPoint x="577" y="455" as="sourcePoint"/>
            <mxPoint x="407" y="1160" as="targetPoint"/>
          </mxGeometry>
        </mxCell>
        <mxCell id="Y6lM4kN4b_S3sSFsryqp-75" value="`" style="text;html=1;align=center;verticalAlign=middle;resizable=0;points=[];autosize=1;" vertex="1" parent="1">
          <mxGeometry x="306" y="321" width="20" height="20" as="geometry"/>
        </mxCell>
      </root>
    </mxGraphModel>
  </diagram>
</mxfile>
